<?xml version="1.0" encoding="utf-8"?>
<!-- Generator: Adobe Illustrator 19.2.1, SVG Export Plug-In . SVG Version: 6.00 Build 0)  -->
<svg version="1.1" id="layer" xmlns="http://www.w3.org/2000/svg" xmlns:xlink="http://www.w3.org/1999/xlink" x="0px" y="0px"
	 viewBox="0 0 652 652" style="enable-background:new 0 0 652 652;" xml:space="preserve">
<style type="text/css">
	.st0{fill:#5D3AC5;}
</style>
<path class="st0" d="M461.1,256.9c10.7,0,19.2-8.7,19.2-19.5s-8.5-19.5-19.2-19.5c-10.7,0-19.2,8.7-19.2,19.5
	S450.4,256.9,461.1,256.9z M60.8,331.9c0,14,11.3,25.2,25.2,25.2c14,0,25.4-11.2,25.2-25.2c0-14-11.3-25.2-25.2-25.2
	C72,306.7,60.8,317.9,60.8,331.9z M26.5,330.9c0-0.3,0.1-0.6,0-0.9v-47.3c0-4.9,4-8.8,8.8-8.8c0.7,0,1.4,0.1,2.1,0.3h0h0.1
	c6.1,1.4,16.2,3.9,19.4,4.8c0.1,0,0.3,0,0.4,0.1c0.2,0,0.4,0.1,0.6,0.1c0.6,0,1.3-0.3,1.9-0.6c8-3.9,16.8-6.1,26.2-6.1
	c33,0,59.7,26.7,59.7,59.4c0,32.9-26.8,59.6-59.7,59.6c-6.7,0-13-1.2-18.9-3.2c-0.3-0.1-0.4-0.1-0.7-0.1c-1.1,0-2.1,1-2.1,2.2v28.6
	c0,2.9-3.1,5.3-7.7,6.2c0,0-25.1,6.9-25.4,6.9c-2.6,0-4.7-2-4.7-4.6v-95.5v-0.6C26.5,331.2,26.5,331.1,26.5,330.9z M195.4,332.9
	c0,14.1,11.3,25.5,25.2,25.5s25.4-11.5,25.2-25.5c0-14.1-11.3-25.5-25.2-25.5S195.4,318.8,195.4,332.9z M161.1,332.9
	c0-33.5,26.6-60.4,59.5-60.4c33,0,59.7,27,59.5,60.4c0,33.3-26.6,60.3-59.5,60.3S161.1,366.2,161.1,332.9z M478.5,272.6
	c0.4-0.1,0.9-0.1,1-0.1c2.6,0,4.7,2.2,4.7,4.6v2.3v55.7v53.4c0,2.6-2.1,4.8-4.7,4.8c0,0-24.8-4.9-32.8-6.5c-2.6-0.6-4.7-2.2-4.7-4.8
	v-96.5c0-2.5,2-4.5,4.4-4.6c0,0,11.1-3.2,20.9-5.6c1.1-0.3,2.2-0.6,3.3-0.8l0,0l0,0c2.8-0.7,5.3-1.3,6.9-1.6h0.1h0.1
	C478.2,272.6,478.3,272.6,478.5,272.6z M566.8,358.5c-14,0-25.2-11.4-25.2-25.5s11.3-25.5,25.2-25.5c14,0,25.2,11.4,25.2,25.5
	C592.1,346.9,580.7,358.5,566.8,358.5z M617.6,273.8c-0.7,0-1.4,0.1-2,0.3h-0.1c-4.7,1.2-11,2.8-15.5,3.9l0,0c-1.6,0.4-3,0.8-3.9,1
	c-0.3,0.1-0.7,0.1-1,0.1c-0.7,0-1.3-0.1-1.9-0.6c-8-3.9-16.8-6.2-26.2-6.2c-32.9,0-59.7,27-59.7,60.4c0,33.3,26.6,60.3,59.7,60.3
	c9.4,0,18.2-2.3,26.2-6.2c0.6-0.3,1.3-0.6,1.9-0.6c0.2,0,0.4,0,0.6,0.1c0.1,0,0.2,0,0.2,0c0.1,0,0.1,0,0.2,0
	c3.1,0.9,13.5,3.6,19.7,5h0.1c0.2,0,0.3,0,0.5,0.1c0.1,0,0.2,0.1,0.2,0.1c0.1,0,0.3,0,0.4,0.1c0.2,0,0.4,0.1,0.6,0.1
	c4.8,0,8.8-4,8.8-8.9V282.7C626.5,277.8,622.5,273.8,617.6,273.8z M330,329.8c0,14,11.3,25.2,25.2,25.2s25.4-11.2,25.2-25.2
	c0-14-11.3-25.2-25.2-25.2S330,315.8,330,329.8z M414.9,330.9c0,0.3-0.1,0.6,0,0.9v47.3c0,4.9-4,8.8-8.8,8.8c-0.9,0-1.6-0.1-2.3-0.3
	l0,0h-0.4c-4-0.9-9.7-2.4-14-3.5c-0.5-0.1-0.9-0.2-1.4-0.4c-1.4-0.3-2.7-0.6-3.6-0.9c-0.1,0-0.3,0-0.4-0.1c-0.2,0-0.4-0.1-0.6-0.1
	c-0.6,0-1.3,0.1-1.9,0.4c-8,3.9-16.8,6.1-26.2,6.1c-32.9,0-59.5-26.5-59.5-59.4c0-32.7,26.6-59.4,59.5-59.4c6.7,0,13,1.2,18.9,3.2
	c0.3,0.1,0.4,0.1,0.7,0.1c0.6,0,1.1-0.1,1.6-0.6c0.1-0.1,0.1-0.1,0.1-0.2c0-0.1,0.1-0.1,0.1-0.2c0-0.1,0-0.1,0.1-0.1
	c0,0,0.1-0.1,0.1-0.1c0.1-0.3,0.1-0.4,0.1-0.7v-0.1v-27.3c0-0.4,0-0.7,0.1-1.2c0-0.3,0-0.4,0.1-0.7c0-0.1,0-0.1,0.1-0.2
	c0-0.1,0.1-0.1,0.1-0.2c0.7-2,2.6-3.6,5-4.5c0.7-0.3,1.4-0.6,2.3-0.9c0,0,24.1-6.6,25.4-6.9c2.6-0.6,4.7,2,4.7,4.6v3.9v8.5v83.2v0.6
	C414.9,330.6,414.9,330.8,414.9,330.9z"/>
</svg>
